# xmcd CD database file
#
# Track frame offsets:
#	150
#	24861
#	53539
#	84185
#	88154
#	115442
#	137005
#	166984
#	186017
#	214920
#
# Disc length: 3727 seconds
#
# Revision: 0
# Processed by: cddbd v1.5.2PL0 Copyright (c) Steve Scherf et al.
# Submitted via: CDex 1.70beta2
#
DISCID=7a0e8d0a
DTITLE=Esbjörn Svensson Trio - Seven Days Of Falling
DYEAR=1900
DGENRE=Jazz
TTITLE0=Ballad For The Unknown
TTITLE1=Seven Days Of Falling
TTITLE2=Mingle In The Mincing-Machine
TTITLE3=Evening In Atlantis
TTITLE4=Did They Never Tell Costeau
TTITLE5=Believe Beleft Below
TTITLE6=Elevation Of Love
TTITLE7=In My Garage
TTITLE8=Why She Couldn't Come
TTITLE9=O.D.R.I.P.
EXTD=
EXTT0=
EXTT1=
EXTT2=
EXTT3=
EXTT4=
EXTT5=
EXTT6=
EXTT7=
EXTT8=
EXTT9=
PLAYORDER=
